<svg id="hospital-bed" xmlns="http://www.w3.org/2000/svg" width="47.998" height="47.998" viewBox="0 0 47.998 47.998">
  <g id="Group_277" data-name="Group 277" transform="translate(0 0)">
    <path id="Path_270" data-name="Path 270" d="M145.92,17.874a9.136,9.136,0,0,0,10.744-13.02A9.136,9.136,0,0,0,144.31,1.071h0a9.135,9.135,0,0,0,1.61,16.8Zm-.95-15.561h0a7.729,7.729,0,1,1,7.251,13.652A7.729,7.729,0,1,1,144.97,2.313Z" transform="translate(-126.387 0.001)" fill="#fff"/>
    <path id="Path_271" data-name="Path 271" d="M181.645,48.244h1.433v1.431a1.618,1.618,0,0,0,1.615,1.617h1.331a1.619,1.619,0,0,0,1.617-1.617V48.244h1.431a1.619,1.619,0,0,0,1.617-1.617V45.3a1.619,1.619,0,0,0-1.617-1.617h-1.431V42.248a1.619,1.619,0,0,0-1.617-1.617h-1.331a1.618,1.618,0,0,0-1.615,1.617v1.431h-1.433a1.619,1.619,0,0,0-1.617,1.617v1.331A1.619,1.619,0,0,0,181.645,48.244Zm-.211-2.948a.214.214,0,0,1,.211-.211h2.137a.7.7,0,0,0,.7-.7V42.248a.213.213,0,0,1,.208-.211h1.331a.214.214,0,0,1,.211.211v2.134a.7.7,0,0,0,.7.7h2.134a.214.214,0,0,1,.211.211v1.331a.214.214,0,0,1-.211.211h-2.134a.7.7,0,0,0-.7.7v2.134a.214.214,0,0,1-.211.211h-1.331a.212.212,0,0,1-.208-.211V47.541a.7.7,0,0,0-.7-.7h-2.137a.214.214,0,0,1-.211-.211Z" transform="translate(-163.151 -36.822)" fill="#fff"/>
    <path id="Path_272" data-name="Path 272" d="M45.264,171.134v-5.79h1.885a.7.7,0,0,0,.7-.7V150.552a2.7,2.7,0,0,0-5.307-.7H36.209a.7.7,0,0,0,0,1.406h6.243v12.682H23.441v-9.825a2.861,2.861,0,0,1,2.858-2.858h6.662a.7.7,0,1,0,0-1.406H26.3a4.269,4.269,0,0,0-4.264,4.264v.19h-8.4a2.873,2.873,0,0,0-1.759-2.577q-.029-.012-.059-.021l-6.416-2v-3.62a2.7,2.7,0,1,0-5.4,0v6.579a.7.7,0,0,0,1.406,0V146.08a1.294,1.294,0,1,1,2.588,0v14.567a.7.7,0,0,0,.7.7H22.035v2.587H1.406v-8.031a.7.7,0,0,0-1.406,0v8.734a.7.7,0,0,0,.7.7H3.309v5.79a3.438,3.438,0,1,0,1.406,0V168.9H43.858v2.23a3.438,3.438,0,1,0,1.406,0Zm-.113-21.874a1.3,1.3,0,0,1,1.3,1.292v13.385H43.858V150.552A1.294,1.294,0,0,1,45.151,149.26Zm-33.787,3.776a1.457,1.457,0,0,1,.865,1.267H5.4v-3.129ZM5.4,159.944v-4.235H22.035v4.235ZM6.043,174.5a2.031,2.031,0,1,1-2.031-2.031A2.033,2.033,0,0,1,6.043,174.5Zm-1.328-7v-2.154H43.858V167.5Zm39.846,9.032a2.031,2.031,0,1,1,2.031-2.031A2.033,2.033,0,0,1,44.561,176.53Z" transform="translate(0 -129.938)" fill="#fff"/>
  </g>
</svg>
