<svg id="icu" xmlns="http://www.w3.org/2000/svg" width="48.171" height="47.919" viewBox="0 0 48.171 47.919">
  <g id="Group_279" data-name="Group 279" transform="translate(0 0)">
    <g id="Group_278" data-name="Group 278">
      <path id="Path_273" data-name="Path 273" d="M43.082,31.447l.652-.652A4.574,4.574,0,0,0,44.8,29.128h1.83V27.582H45.078c0-.013,0-.026,0-.039a4.6,4.6,0,0,0-7.729-3.369,4.6,4.6,0,0,0-7.729,3.369,4.641,4.641,0,0,0,.075.812H28.076V29.9h2.2a4.621,4.621,0,0,0,.693.894l.652.652H26.53v7.729H19.574a2.321,2.321,0,0,1-2.319-2.319V30.531a2.316,2.316,0,0,0,1.4-1.4h6.577l-1.05-3.677a5.388,5.388,0,0,0-4.14-3.818l-4.336-.868v-.2a6.2,6.2,0,0,0,2.9-3.86A3.093,3.093,0,0,0,21.12,13.67V8.355a4.847,4.847,0,0,0-3.39-4.628A5.967,5.967,0,0,0,12.923,1.3a8.816,8.816,0,0,0-8.807,8.807V13.67A3.1,3.1,0,0,0,6.624,16.7a6.2,6.2,0,0,0,2.9,3.86v.2l-4.334.867a5.388,5.388,0,0,0-4.141,3.818L0,29.128H6.577a2.316,2.316,0,0,0,1.4,1.4v8.644a5.417,5.417,0,0,0,5.41,5.41H26.53v1.546h1.546v3.092H46.625V46.131h1.546V31.447H43.082Zm-26.6-2.319a.773.773,0,1,1,.773-.773A.774.774,0,0,1,16.483,29.128ZM18.8,15V12.339A1.532,1.532,0,0,1,18.8,15ZM6.435,15a1.532,1.532,0,0,1,0-2.662Zm-.773-3.993v-.9a7.269,7.269,0,0,1,7.261-7.26,4.424,4.424,0,0,1,3.689,1.975l.165.249.29.073a3.3,3.3,0,0,1,2.506,3.209v2.653a3.06,3.06,0,0,0-1.546-.43,8.555,8.555,0,0,1-5.1-1.7l-1.155-.866L10.619,9.166a4.793,4.793,0,0,1-3.412,1.413A3.06,3.06,0,0,0,5.662,11.008Zm2.319,4.208V12.073a6.317,6.317,0,0,0,3.731-1.814l.206-.206.082.062a10.12,10.12,0,0,0,5.256,1.978v3.123a4.637,4.637,0,0,1-9.275,0ZM6.576,27.582H2.05l.488-1.707A3.849,3.849,0,0,1,5.5,23.148l5.577-1.115V21.2a5.979,5.979,0,0,0,3.092,0v.837l5.578,1.115A3.85,3.85,0,0,1,22.7,25.876l.487,1.707H18.658a2.305,2.305,0,0,0-4.353,0H10.929a2.305,2.305,0,0,0-4.353,0Zm2.178,1.546a.773.773,0,1,1,.773-.773A.774.774,0,0,1,8.754,29.128ZM26.531,43.04H13.391a3.869,3.869,0,0,1-3.864-3.864V30.531a2.316,2.316,0,0,0,1.4-1.4h3.377a2.316,2.316,0,0,0,1.4,1.4v6.325a3.869,3.869,0,0,0,3.864,3.864h6.956ZM31.29,28.355a3.015,3.015,0,0,1,2.931-3.864,3.033,3.033,0,0,1,2.159.894l.972.972.972-.972a3.053,3.053,0,0,1,5.212,2.159c0,.013,0,.026,0,.039H37.646l-1.068,2.136L34.116,24.8l-1.187,3.56H31.29Zm6.061,6.636L32.26,29.9h1.783l.359-1.077,2.176,4.351L38.6,29.128H43.08a3.05,3.05,0,0,1-.441.574Zm1.093,1.093h5.09V38.4H31.167V36.084h5.09l1.093,1.093Zm6.636,11.593H29.622V46.131H45.079Zm1.546-3.092H28.076V32.992h5.09l1.546,1.546h-5.09v5.41H45.079v-5.41h-5.09l1.546-1.546h5.09Z" transform="translate(0 -1.304)" fill="#fff"/>
    </g>
  </g>
  <g id="Group_281" data-name="Group 281" transform="translate(36.578 40.19)">
    <g id="Group_280" data-name="Group 280">
      <rect id="Rectangle_530" data-name="Rectangle 530" width="1.546" height="1.546" fill="#fff"/>
    </g>
  </g>
  <g id="Group_283" data-name="Group 283" transform="translate(41.988 40.19)">
    <g id="Group_282" data-name="Group 282">
      <rect id="Rectangle_531" data-name="Rectangle 531" width="1.546" height="1.546" fill="#fff"/>
    </g>
  </g>
  <g id="Group_285" data-name="Group 285" transform="translate(31.167 40.19)">
    <g id="Group_284" data-name="Group 284">
      <rect id="Rectangle_532" data-name="Rectangle 532" width="1.546" height="1.546" fill="#fff"/>
    </g>
  </g>
</svg>
