<svg id="patients" xmlns="http://www.w3.org/2000/svg" width="43.987" height="48" viewBox="0 0 43.987 48">
  <g id="Group_286" data-name="Group 286">
    <path id="Path_274" data-name="Path 274" d="M419.183,411.732a.7.7,0,0,0-.7.7v7.994a.7.7,0,0,0,1.406,0v-7.994A.7.7,0,0,0,419.183,411.732Z" transform="translate(-381.254 -373.132)" fill="#fff"/>
    <path id="Path_275" data-name="Path 275" d="M241,411.732a.7.7,0,0,0-.7.7v7.994a.7.7,0,0,0,1.406,0v-7.994A.7.7,0,0,0,241,411.732Z" transform="translate(-219.776 -373.132)" fill="#fff"/>
    <path id="Path_276" data-name="Path 276" d="M54.176,28.146v-.875a9.071,9.071,0,0,0,5.56-6.627c.1.008.191.013.287.013A3.558,3.558,0,0,0,62.2,14.284V10.346c.01-.023.02-.045.03-.069a5.546,5.546,0,0,0,.38-2.694c-.031-.29-.073-.581-.123-.865A8.154,8.154,0,0,0,54.422,0h-.141a.7.7,0,0,0,0,1.406h.141A6.75,6.75,0,0,1,61.1,6.962c.045.254.082.514.11.772a4.136,4.136,0,0,1-.283,2.009,4.094,4.094,0,0,1-3.8,2.549h-12.3a4.1,4.1,0,0,1-3.8-2.545l0-.006a4.134,4.134,0,0,1-.284-2.01c.028-.258.065-.517.11-.77a6.75,6.75,0,0,1,6.68-5.556H51.11A.7.7,0,1,0,51.11,0H47.535A8.154,8.154,0,0,0,39.47,6.717c-.05.284-.091.574-.123.862a5.543,5.543,0,0,0,.383,2.7l0,.006c.008.019.016.037.024.056v3.941a3.557,3.557,0,0,0,2.178,6.373c.089,0,.178,0,.267-.011a8.971,8.971,0,0,0,5.578,6.64v.86a12.39,12.39,0,0,0-7.021,3.086l-5.581-5.581a.7.7,0,0,0-.5-.206H22.105a.7.7,0,1,0,0,1.406H34.391l5.373,5.373a12.432,12.432,0,0,0-3.2,8.321v1.616a.7.7,0,1,0,1.406,0V40.545a11.028,11.028,0,0,1,2.784-7.325l.274.274a.7.7,0,0,0,.994-.994l-.271-.271a10.989,10.989,0,0,1,6.025-2.669v.851a3.2,3.2,0,0,0,6.4,0v-.851a11.074,11.074,0,0,1,9.807,10.986V47.3a.7.7,0,0,0,1.406,0V40.545a12.483,12.483,0,0,0-11.213-12.4Zm5.847-8.9c-.038,0-.077,0-.115,0,.006-.139.01-.278.01-.418V14.949c.035,0,.07,0,.1,0a2.153,2.153,0,1,1,0,4.307Zm.771-6.943v1.315a3.555,3.555,0,0,0-.771-.085l-.1,0v-.2c0-.13,0-.261-.01-.392a5.48,5.48,0,0,0,.886-.642Zm-19.63,0a5.485,5.485,0,0,0,.885.642c-.006.131-.01.262-.01.393v.2l-.1,0a3.558,3.558,0,0,0-.771.085Zm.771,6.944a2.153,2.153,0,1,1,0-4.307c.035,0,.069,0,.1,0v3.984c0,.105,0,.21.006.315Zm1.51-.318v-5.41a5.549,5.549,0,0,0,1.386.176h12.3a5.553,5.553,0,0,0,1.384-.175V18.83a7.605,7.605,0,0,1-7.476,7.636H50.98a7.533,7.533,0,0,1-7.535-7.533ZM50.979,32.2a1.793,1.793,0,0,1-1.792-1.791V27.693a9.026,9.026,0,0,0,1.793.179h.066a8.8,8.8,0,0,0,1.724-.184V30.41A1.793,1.793,0,0,1,50.979,32.2Z" transform="translate(-21.402 0)" fill="#fff"/>
    <path id="Path_277" data-name="Path 277" d="M183.882,476.041a.7.7,0,0,0-.7.7v1.965a.7.7,0,0,0,1.406,0v-1.965A.7.7,0,0,0,183.882,476.041Z" transform="translate(-168.012 -431.412)" fill="#fff"/>
    <path id="Path_278" data-name="Path 278" d="M371.362,173.939h.008a.7.7,0,0,0,.008-1.406h-.016a.7.7,0,0,0,0,1.406Z" transform="translate(-337.919 -156.358)" fill="#fff"/>
    <path id="Path_279" data-name="Path 279" d="M288.821,172.534h-.008a.707.707,0,1,0,.008,0Z" transform="translate(-263.11 -156.359)" fill="#fff"/>
    <path id="Path_280" data-name="Path 280" d="M50.478,307.939H41.585a.7.7,0,0,0,0,1.406h8.893a.7.7,0,0,0,0-1.406Z" transform="translate(-39.056 -279.07)" fill="#fff"/>
    <path id="Path_281" data-name="Path 281" d="M87.471,334.273H82.405a.7.7,0,0,0,0,1.406h5.066a.7.7,0,0,0,0-1.406Z" transform="translate(-76.049 -302.935)" fill="#fff"/>
    <path id="Path_282" data-name="Path 282" d="M87.471,360.606H82.405a.7.7,0,1,0,0,1.406h5.066a.7.7,0,1,0,0-1.406Z" transform="translate(-76.049 -326.799)" fill="#fff"/>
    <path id="Path_283" data-name="Path 283" d="M95.345,398.781H93.1a1.643,1.643,0,0,0-1.641,1.641v2.248A1.643,1.643,0,0,0,93.1,404.31h2.247a1.643,1.643,0,0,0,1.641-1.641v-2.248A1.642,1.642,0,0,0,95.345,398.781Zm.234,3.888a.235.235,0,0,1-.234.234H93.1a.235.235,0,0,1-.234-.234v-2.248a.235.235,0,0,1,.234-.234h2.247a.235.235,0,0,1,.234.234Z" transform="translate(-84.889 -361.395)" fill="#fff"/>
    <path id="Path_284" data-name="Path 284" d="M34.727,99.214a9.428,9.428,0,0,0,4.938,3.423,1.078,1.078,0,0,0,.657,0,9.427,9.427,0,0,0,4.937-3.423,7.976,7.976,0,0,0,1.05-1.979,2.706,2.706,0,0,0,.156-.909V94.7a.7.7,0,1,0-1.406,0v1.624a1.3,1.3,0,0,1-.075.438,6.556,6.556,0,0,1-.865,1.626,8.017,8.017,0,0,1-4.126,2.875,8.019,8.019,0,0,1-4.126-2.875,6.885,6.885,0,0,1-.459-.726,3.981,3.981,0,0,1-.481-1.9v-5.59l5.066-1.234,5.066,1.234v1.362a.7.7,0,1,0,1.406,0V89.918a1.084,1.084,0,0,0-.83-1.056L40.249,87.55a1.1,1.1,0,0,0-.514,0L34.35,88.862a1.084,1.084,0,0,0-.83,1.056v5.841a5.391,5.391,0,0,0,.653,2.58A8.359,8.359,0,0,0,34.727,99.214Z" transform="translate(-32.384 -79.315)" fill="#fff"/>
    <path id="Path_285" data-name="Path 285" d="M79.388,143.522a.7.7,0,0,0,.7-.7v-.991h.991a.7.7,0,0,0,0-1.406h-.991v-.991a.7.7,0,0,0-1.406,0v.991h-.991a.7.7,0,0,0,0,1.406h.991v.991A.7.7,0,0,0,79.388,143.522Z" transform="translate(-71.78 -125.721)" fill="#fff"/>
    <path id="Path_286" data-name="Path 286" d="M309.978,216.235a.7.7,0,0,0-1.405-.051,1.7,1.7,0,0,1-3.4,0,.7.7,0,0,0-1.405.051,3.106,3.106,0,0,0,6.208,0Z" transform="translate(-277.297 -195.303)" fill="#fff"/>
  </g>
</svg>
