<svg xmlns="http://www.w3.org/2000/svg" width="80" height="80" viewBox="0 0 80 80">
  <g id="heart" transform="translate(-0.057)">
    <g id="Group_273" data-name="Group 273" transform="translate(14.495)">
      <g id="Group_272" data-name="Group 272">
        <path id="Path_268" data-name="Path 268" d="M148.189,4.7A13.905,13.905,0,0,0,137.662,0c-4.567,0-8.526,2.159-11.448,6.245-.219.306-.424.613-.616.916-.192-.3-.4-.61-.616-.916C122.058,2.159,118.1,0,113.532,0A13.906,13.906,0,0,0,103,4.7a16.212,16.212,0,0,0-3.969,10.828c0,4.462,1.732,8.579,5.449,12.958,3.243,3.82,7.9,7.747,13.283,12.294,1.991,1.68,4.049,3.418,6.237,5.314a2.432,2.432,0,0,0,3.185,0c2.187-1.9,4.245-3.633,6.236-5.313,3.46-2.92,6.448-5.442,9.04-7.888,5.034-4.75,9.692-10.14,9.692-17.364A16.211,16.211,0,0,0,148.189,4.7Zm-9.061,24.654c-2.495,2.354-5.435,4.835-8.84,7.709-1.515,1.278-3.068,2.589-4.692,3.982-1.624-1.392-3.178-2.7-4.693-3.982-10.6-8.95-17-14.353-17-21.535,0-6.08,4.141-10.665,9.633-10.665a8.947,8.947,0,0,1,7.416,4.105,16.366,16.366,0,0,1,2.3,4.568,2.432,2.432,0,0,0,4.687,0c.024-.087,2.486-8.673,9.721-8.673,5.492,0,9.633,4.585,9.633,10.665C147.295,19.934,145.005,23.81,139.128,29.355Z" transform="translate(-99.036)" fill="#ff8629"/>
      </g>
    </g>
    <g id="Group_275" data-name="Group 275" transform="translate(0.057 44.98)">
      <g id="Group_274" data-name="Group 274" transform="translate(0)">
        <path id="Path_269" data-name="Path 269" d="M73.026,297a6.94,6.94,0,0,0-5.146,2.323l-6.889,7.672a7.08,7.08,0,0,0-6.716-5.132H43.448a6.1,6.1,0,0,1-4.116-1.611,15.993,15.993,0,0,0-21.5-.155,6.956,6.956,0,0,0-5.745-3.1H2.4A2.389,2.389,0,0,0,.057,299.43v29.18A2.389,2.389,0,0,0,2.4,331.041h9.687a6.91,6.91,0,0,0,5.285-2.491l1.388.4a52.083,52.083,0,0,0,14.587,2.086H54.276A16.291,16.291,0,0,0,67.4,324.233l11.252-15.565h0a7.415,7.415,0,0,0,1.4-4.373A7.175,7.175,0,0,0,73.026,297ZM14.432,323.746a2.392,2.392,0,0,1-2.344,2.432H4.744V301.861h7.344a2.392,2.392,0,0,1,2.344,2.432Zm60.471-18h0L63.651,321.315a11.637,11.637,0,0,1-9.375,4.863H33.348a47.557,47.557,0,0,1-13.318-1.905l-.917-.267c0-.086.006-.172.006-.259V305.392l1.633-1.491a11.427,11.427,0,0,1,15.484,0,10.686,10.686,0,0,0,7.212,2.823H54.276a2.433,2.433,0,0,1,0,4.863H37.619a2.433,2.433,0,0,0,0,4.863H55.847a6.938,6.938,0,0,0,5.145-2.323L71.31,302.636a2.283,2.283,0,0,1,1.716-.775,2.392,2.392,0,0,1,2.344,2.432A2.468,2.468,0,0,1,74.9,305.749Z" transform="translate(-0.057 -296.021)" fill="#ff8629"/>
      </g>
    </g>
  </g>
</svg>
