<svg id="Layer_1" enable-background="new 0 0 512.053 512.053" height="512" viewBox="0 0 512.053 512.053" width="512" xmlns="http://www.w3.org/2000/svg"><g><path d="m481.526 281.945c-16.271 0-29.374 12.833-30.478 29.852-.584 9.003-1.918 22.005-3.442 31.004-2.737 2.201-9.878 4.861-17.58 7.376v-140.617c0-16.818-13.683-30.5-30.5-30.5-4.163 0-8.133.839-11.752 2.355 13.278-18.595 25.355-40.171 31.427-62.867 9.651-36.075 1.818-68.036-22.65-92.427-34.94-34.828-91.792-34.829-126.729 0-8.96 8.933-20.902 6.667-27.589 0-34.939-34.828-91.79-34.829-126.73 0-24.469 24.391-32.301 56.352-22.65 92.427 6.072 22.696 18.149 44.273 31.427 62.868-3.619-1.516-7.589-2.355-11.751-2.355-16.818 0-30.5 13.682-30.5 30.5v140.618c-7.702-2.516-14.843-5.175-17.58-7.376-1.524-9-2.857-22.001-3.442-31.004-1.104-17.019-14.207-29.852-30.479-29.852-16.818 0-30.5 13.682-30.5 30.5v67.189c0 13.326 5.101 23.799 16.046 32.931l65.955 62.443v27.046c0 5.523 4.477 10 10 10h327.998c5.523 0 10-4.477 10-10v-27.046l65.955-62.443c10.945-9.132 16.046-19.605 16.046-32.931v-67.189c-.001-16.819-13.684-30.502-30.502-30.502zm-351.904-241.659c13.577-13.534 31.411-20.301 49.246-20.301 17.834 0 35.668 6.767 49.245 20.301 15.653 15.604 40.176 15.602 55.828 0 27.154-27.068 71.337-27.068 98.49 0 19.385 19.323 25.256 43.915 17.45 73.093-17.941 67.066-104.373 141.907-143.854 154.69-39.481-12.783-125.912-87.624-143.854-154.69-7.806-29.178-1.935-53.77 17.449-73.093zm-30.719 423.157-69.317-65.626c-.165-.157-.336-.308-.511-.452-6.595-5.441-9.047-10.246-9.047-17.73v-67.189c0-5.79 4.71-10.5 10.5-10.5 6.364 0 10.17 5.743 10.521 11.147.659 10.154 2.253 25.725 4.195 35.917.209 1.101.603 2.158 1.163 3.128 5.749 9.957 21.153 14.641 42.473 21.125 41.115 12.502 75.149 25.292 75.149 55.291 0 5.523 4.477 10 10 10s10-4.477 10-10c0-21.144-11.007-38.603-32.716-51.894-15.004-9.187-32.773-15.193-49.284-20.292v-146.808c0-5.79 4.71-10.5 10.5-10.5s10.5 4.71 10.5 10.5v108.815c0 5.523 4.477 10 10 10s10-4.477 10-10v-108.815-4.413c7.632 8.805 14.924 16.345 21 22.282v90.946c0 5.523 4.477 10 10 10s10-4.477 10-10v-72.732c7.041 5.973 14.094 11.509 21 16.5v56.232c0 5.523 4.477 10 10 10s10-4.477 10-10v-43.068c7.522 4.428 14.609 7.956 21 10.405v206.341h-144.001v-21.349c0-2.747-1.13-5.373-3.125-7.261zm393.124-83.809c0 7.484-2.452 12.289-9.047 17.73-.176.145-.346.295-.511.452l-69.317 65.626c-1.995 1.889-3.125 4.515-3.125 7.262v21.349h-144v-206.341c6.391-2.449 13.478-5.977 21-10.405v43.068c0 5.523 4.477 10 10 10s10-4.477 10-10v-56.232c6.905-4.991 13.959-10.528 21-16.5v72.732c0 5.523 4.477 10 10 10s10-4.477 10-10v-90.946c6.076-5.937 13.368-13.477 21-22.282v4.413 108.815c0 5.523 4.477 10 10 10s10-4.477 10-10v-108.815c0-5.79 4.71-10.5 10.5-10.5s10.5 4.71 10.5 10.5v146.808c-16.511 5.099-34.28 11.105-49.285 20.292-21.708 13.291-32.715 30.75-32.715 51.894 0 5.523 4.477 10 10 10s10-4.477 10-10c0-29.999 34.034-42.789 75.149-55.292 21.32-6.483 36.724-11.167 42.473-21.124.56-.971.954-2.028 1.163-3.129 1.942-10.192 3.536-25.763 4.195-35.917.351-5.404 4.157-11.147 10.52-11.147 5.79 0 10.5 4.71 10.5 10.5z"/><path d="m200.59 207.014c1.917 1.744 4.325 2.604 6.727 2.604 2.718 0 5.426-1.102 7.399-3.27 3.717-4.085 3.418-10.409-.667-14.126-10.953-9.967-21.106-20.618-30.177-31.656-3.506-4.267-9.808-4.885-14.075-1.377-4.267 3.506-4.884 9.808-1.377 14.075 9.682 11.78 20.505 23.136 32.17 33.75z"/><path d="m150.891 119.667h-.007c-5.523 0-9.996 4.477-9.996 10s4.48 10 10.003 10 10-4.477 10-10-4.477-10-10-10z"/></g></svg>