<svg xmlns="http://www.w3.org/2000/svg" width="80" height="80" viewBox="0 0 80 80">
  <path id="vision" d="M79.314,16.976a2.345,2.345,0,0,0-.722-3.808l-7.9-3.438-2.772-8.01A2.343,2.343,0,0,0,64.047.829L59.578,5.3A40.986,40.986,0,0,0,39.973.153,39.984,39.984,0,0,0,0,40.147,39.968,39.968,0,0,0,68.238,68.428a40.019,40.019,0,0,0,6.91-47.284ZM62.9,26.767l-4.843-1.3L69.337,14.254l4.229,1.841Zm-.883,13.38A22.044,22.044,0,1,1,39.973,18.091a20.54,20.54,0,0,1,9.766,2.265l1.208,5.566-2.972,2.954a13.849,13.849,0,1,0,3.3,3.325L54.21,29.29l5.764,1.548a20.522,20.522,0,0,1,2.043,9.31Zm-12.908,0a9.149,9.149,0,1,1-4.534-7.891l-6.336,6.3a2.344,2.344,0,1,0,3.3,3.327l6.339-6.3a9.086,9.086,0,0,1,1.227,4.567ZM64.715,6.793l1.4,4.051L54.892,22l-.96-4.42ZM75.258,40.147A35.282,35.282,0,0,1,15.022,65.112,35.305,35.305,0,0,1,39.973,4.842,36.142,36.142,0,0,1,56.112,8.768l-6.4,6.4-.018.019A25.871,25.871,0,0,0,39.973,13.4,26.745,26.745,0,1,0,66.7,40.147a25.647,25.647,0,0,0-1.521-9.039c.025-.023.05-.043.074-.067l6.413-6.417A35.3,35.3,0,0,1,75.258,40.147Z" transform="translate(0 -0.142)" fill="#ff8629"/>
</svg>
