<svg xmlns="http://www.w3.org/2000/svg" width="80" height="80" viewBox="0 0 80 80">
  <g id="visionary" transform="translate(0 -0.016)">
    <path id="Path_267" data-name="Path 267" d="M66.98,1.229l1.212,4.525L18.109,19.1l1.214,4.531-9.055,2.427,1.213,4.528L6.954,31.8,4.528,22.742,0,23.955,6.066,46.594l4.528-1.213L8.167,36.325l4.528-1.213,1.213,4.528,9.055-2.426,1.211,4.519L34.167,39.1a7.084,7.084,0,0,0,2.476,2.253L19.795,75.329H14.218v4.688H22.7L37.654,49.862V75.329H32.967v4.688H47.028V75.329H42.341V49.862L57.293,80.016h8.485V75.329H60.2L43.352,41.35a7.041,7.041,0,0,0,3.657-5.683l27.25-7.273,1.214,4.53L80,31.71,71.508.016ZM17.222,33.9l-1.213-4.528,4.528-1.213,1.213,4.528Zm6.63-11.479,36.5-9.725,3.641,13.588-18.23,4.865A7.026,7.026,0,0,0,33,34.559l-5.5,1.451ZM40,37.516a2.344,2.344,0,1,1,2.344-2.344A2.346,2.346,0,0,1,40,37.516ZM68.517,25.075l-3.64-13.586,4.529-1.207,3.64,13.584Z" fill="#ff8629"/>
  </g>
</svg>
